<svg xmlns="http://www.w3.org/2000/svg" width="256" height="256" fill="none"><rect width="256" height="256" fill="#fff" rx="51.2"/><path fill="#3D99F5" d="M202.2 100.5c4.6 0 8.6.6 11.8 1.6 3.3 1 6 2.4 8.3 4 2.2 1.7 4 3.5 5.4 5.6 1.4 2.2 1.7 4.2 2.4 6.3.3 2.1.3 4.8-.1 6.7l-.9 4.8c-.4 2-1 4-2.2 5.5-1.2 1.6-3 2.2-7.3 2.2-1.4 0-3-.1-4.7-.4-1.6-.3-3.1-.9-4.4-1.7-1.2-1-1.8-2.3-1.8-4 0-4.5 2.4-8 1.2-10.5-1.2-2.6-3.8-4-7.7-4a6.3 6.3 0 0 0-6.2 4c-.6 1.2-1.6 3-1.8 4.1 0 0-13.9 36.7-13.9 39.3 0 2.7.4 3.3 1 4.8a9.3 9.3 0 0 0 2.4 3.3c1 1 2.7 1.5 4.7 1.5 3.8 0 6.3-1.5 7.6-4.4 1.3-2.9 2.2-6.3 3.6-10.2 1.2-3.1 1.6-3.6 3.1-4.6 1.6-1 4.5-1.5 8.6-1.5 3.7 0 5.5 1 7 2.4 1.4 1.2 1.3 2.2 1.3 3.7 0 4.6-2.5 8.4-4 12a34 34 0 0 1-7.8 10.6c-5.7 5-11 6.6-20.5 6.6a57 57 0 0 1-9.3-1.2 34 34 0 0 1-6.4-2.4c-2-1-4-2.5-5.9-4.5a24.7 24.7 0 0 1-6.2-17.7 495 495 0 0 1 12.3-34.6l3.8-9 3.2-7.2c2-3 3.9-4.3 5.6-5.6 1.7-1.3 1.5-1.2 3.4-2 4.1-2 9-3.1 14.4-3.5ZM193.8 97.8 180 96h-.5l14.3 1.8Z"/><path fill="#3D99F5" d="M109.7 78.6c-2.2-2-4.8-3-7.8-3s-5.6 1-7.8 3a15 15 0 0 0-4.4 7.6 2117.6 2117.6 0 0 0-7.1 32.3L79 135.2l-3.4 15.7H73l-24-63.2c-.5-2-1.2-4-2.2-5.6-.9-1.4-2-2.7-3.7-3.8a9.4 9.4 0 0 0-6-1.8c-3.5 0-6.2 1.2-8.3 3.4-2 2.2-3 4.7-3 7.3 0 1.5.1 2.6.3 3.4l.2.8.2.7L58 178.7c.8 1.9 2 3.5 3.4 5a14.9 14.9 0 0 0 11.4 4.9h2.7a13 13 0 0 0 10.8-5 15 15 0 0 0 2.8-4.9A1930 1930 0 0 0 95 155a3301.8 3301.8 0 0 0 5.5-23.7h2.8l11.3 47.4a14.2 14.2 0 0 0 6.8 8.3c1.8 1 4 1.5 6.7 1.5h2.7c2.7 0 5-.5 6.8-1.5a17.6 17.6 0 0 0 7.6-8.3l32.3-81.1c.1-.7 1.4-1.5 2.1-1.7h.5l13.8 1.9c3.2.2 6.3.2 9.1 0 2.9-.3 5.2-1.2 7-2.7 1.9-1.5 3-4 3.2-7.4.3-3.5-.4-6.1-2-7.9-1.6-1.7-3.8-3-6.5-3.6-2.8-.7-5.8-1.1-9-1.4l-52.2-6.7c-3.2-.2-6.5-.8-9.4-.5a12 12 0 0 0-6.7 3.1c-1.9 1.5-3 4-3.2 7.5-.3 3.4.4 6 2 7.8 1.6 1.7 3.8 3 6.5 3.6 2.8.7 5.8 1.2 9 1.5l4.4.3s5.1.2 7.5 1.6c1.7 1 1 3 .9 3.9l-23.7 54H128l-14-64.7c-.6-3-2-5.5-4.3-7.6Z"/></svg>
