<svg xmlns="http://www.w3.org/2000/svg" width="256" height="256" fill="none">
    <rect width="256" height="256" fill="#3D99F5" rx="32" />
    <rect width="224" height="224" fill="#fff" rx="15" x="16" y="16" />
    <path fill="#3D99F5"
        d="M201 100.8c4.6 0 5.5.5 11 1.5a25.1 25.1 0 0 1 13.5 9.5c1.4 2 1.7 4 2.4 6.1.3 2.2.3 4.7-.1 6.7l-.8 4.7c-.4 2-1 3.8-2.3 5.4-1.1 1.5-3 2.2-7.1 2.2a26 26 0 0 1-4.6-.4 11 11 0 0 1-4.3-1.7 4.7 4.7 0 0 1-1.9-4c0-4.4 2.4-7.8 1.2-10.3-1.2-2.6-3.7-3.9-7.5-3.9a6.2 6.2 0 0 0-6.2 3.8c-.6 1.3-1.5 3-1.8 4.2 0 0-13.6 36-13.6 38.7 0 2.6.4 3.2 1 4.7a9.2 9.2 0 0 0 2.3 3.2c1.1 1 2.6 1.5 4.6 1.5 3.8 0 6.3-1.5 7.5-4.3 1.3-2.9 2.2-6.3 3.6-10 1.2-3.2 1.5-3.6 3-4.6 1.6-1 4.4-1.5 8.5-1.5 3.6 0 5.5 1 6.9 2.3 1.4 1.3 1.3 2.2 1.3 3.7 0 4.5-2.5 8.3-4 11.9-1.4 3.5-5 7.9-7.7 10.3-5.6 5-10.8 6.6-20.2 6.6a56.1 56.1 0 0 1-9-1.2 29 29 0 0 1-6.3-2.4c-2.1-1-4-2.5-5.9-4.4a24.4 24.4 0 0 1-6-17.4c.4-4 12-34 12-34l2.7-9s2-4.8 3.3-6.6c2-3 2.8-3.5 4.5-4.8a31.7 31.7 0 0 1 19.5-6.5Zm-8.2-2.8-13.6-1.7h-.5l14 1.7Z" />
    <path fill="#3D99F5"
        d="M110 79.2a11 11 0 0 0-7.7-3c-3 0-5.5 1-7.7 3a16 16 0 0 0-4.3 7.5 2086.2 2086.2 0 0 0-7 31.8l-3.6 16.3-3.3 15.5h-2.7L50.1 88.1c-.5-2-1.2-3.8-2.1-5.5-.9-1.4-2-2.6-3.6-3.7a9.3 9.3 0 0 0-6-1.8c-3.4 0-6.1 1.1-8.1 3.4-2 2.2-3 4.5-3 7.1 0 1.5.1 2.6.3 3.4l.2.8.1.6 31.3 85.4a18.8 18.8 0 0 0 7.7 8.1c2 1 4.2 1.4 6.8 1.4h2.7a12.8 12.8 0 0 0 10.7-4.8c1-1.2 2-2.8 2.7-4.7a1887.9 1887.9 0 0 0 5.6-23.4A3238.8 3238.8 0 0 0 101 131h2.7l11.1 46.8a14 14 0 0 0 6.7 8c1.7 1 4 1.5 6.6 1.5h2.7c2.6 0 4.8-.5 6.6-1.4a17.3 17.3 0 0 0 7.6-8.1l31.7-80c.1-.6 1.4-1.4 2.1-1.6h.5l13.6 1.8c3.2.3 6.2.3 9 0 2.7-.3 5-1.1 6.9-2.6 1.8-1.4 2.8-3.9 3-7.3.4-3.4-.3-6-1.9-7.7a12.2 12.2 0 0 0-6.4-3.6c-2.7-.6-5.7-1.1-8.9-1.4L143.1 69c-3-.3-6-.3-9 0-2.7.2-5 1-6.8 2.5-1.8 1.4-2.9 3.9-3.2 7.3-.2 3.4.4 6 2 7.7 1.6 1.7 3.7 3 6.5 3.6 2.7.7 5.7 1.2 8.8 1.4l4.3.4s5 .2 7.4 1.5c1.7 1 1 3 .9 3.9l-23.3 53.1H128l-13.7-63.6c-.7-3-2-5.5-4.3-7.5Z" />
</svg>
