<svg width="256" height="256" viewBox="0 0 256 256" fill="none" xmlns="http://www.w3.org/2000/svg"><rect width="256" height="256" fill="white" /><path d="M202.212 100.549C206.84 100.549 210.766 101.066 213.99 102.099C217.296 103.132 220.065 104.475 222.297 106.128C224.528 107.782 226.326 109.641 227.69 111.708C229.053 113.857 229.392 115.882 230.136 117.989C230.368 120.133 230.371 122.758 229.985 124.725C229.6 126.692 229.411 128.043 229.132 129.514C228.747 131.551 228.089 133.434 226.89 135.005C225.692 136.575 223.811 137.247 219.596 137.247C218.232 137.247 216.682 137.103 214.946 136.813C213.252 136.524 211.785 135.946 210.545 135.078C209.305 134.169 208.686 132.825 208.686 131.048C208.686 126.626 211.138 123.134 209.899 120.572C208.7 117.969 206.138 116.667 202.212 116.667C200.187 116.667 199.041 117.11 197.925 117.978C196.851 118.804 196.473 119.531 195.977 120.523C195.357 121.804 194.441 123.595 194.153 124.725C194.153 124.725 180.326 161.365 180.326 164.027C180.326 166.689 180.697 167.312 181.317 168.8C181.813 169.999 182.599 171.094 183.673 172.086C184.789 173.078 186.359 173.573 188.384 173.573C192.186 173.573 194.728 172.127 196.009 169.234C197.29 166.3 198.221 162.871 199.635 159.032C200.805 155.856 201.152 155.409 202.722 154.417C204.334 153.384 207.185 152.867 211.277 152.867C214.996 152.867 216.848 153.97 218.294 155.251C219.74 156.532 219.596 157.462 219.596 159.032C219.596 163.578 217.127 167.436 215.598 171.032C214.11 174.586 210.575 179.093 207.765 181.572C202.062 186.656 196.732 188.203 187.268 188.203C186.566 188.203 185.367 188.141 183.673 188.017C182.02 187.893 180.14 187.563 178.032 187.025C175.966 186.488 173.837 185.682 171.647 184.608C169.539 183.575 167.556 182.066 165.696 180.082C163.919 178.14 162.431 175.743 161.233 172.892C160.076 170.04 159.025 166.438 159.497 162.415C159.969 158.393 171.788 127.825 171.788 127.825L175.6 118.8L178.8 111.6C180.795 108.582 182.664 107.281 184.4 106C186.136 104.719 185.95 104.827 187.768 103.959C191.942 102.016 196.757 100.88 202.212 100.549Z" fill="#3D99F5" /><path d="M193.813 97.7583L179.97 95.9776C179.886 95.8985 179.717 95.8931 179.503 95.9416L193.813 97.7583Z" fill="#3D99F5" /><path d="M109.741 78.6029C107.527 76.5503 104.907 75.5241 101.882 75.5241C98.8573 75.5241 96.2646 76.5503 94.104 78.6029C91.9435 80.6014 90.4851 83.1401 89.7289 86.2189C88.5946 91.2422 87.4333 96.4816 86.245 101.937C85.0566 107.393 83.8413 112.929 82.599 118.546C81.4107 124.11 80.1954 129.646 78.953 135.156C77.7647 140.665 76.6574 145.905 75.6312 150.874H72.8764L48.8766 87.6992C48.3905 85.6466 47.6613 83.7831 46.689 82.1087C45.8248 80.7043 44.6095 79.435 43.0431 78.3007C41.5307 77.1124 39.5321 76.5182 37.0475 76.5182C33.5366 76.5182 30.7548 77.6525 28.7023 79.9211C26.7038 82.1357 25.7045 84.5664 25.7045 87.213C25.7045 88.6714 25.8125 89.8058 26.0286 90.616L26.1906 91.4262L26.3527 92.0744L58.1306 178.745C58.9408 180.582 60.0481 182.202 61.4524 183.606C62.6407 184.849 64.1531 185.983 65.9896 187.009C67.8801 187.982 70.1757 188.468 72.8764 188.468H75.6312C78.3319 188.468 80.5194 187.982 82.1939 187.009C83.9223 185.983 85.3267 184.849 86.407 183.606C87.5413 182.364 88.4865 180.744 89.2427 178.745C90.161 174.91 91.0792 171.021 91.9975 167.078C92.9157 163.135 93.888 159.111 94.9142 155.006C95.8865 150.901 96.8317 146.877 97.75 142.934C98.6682 138.991 99.5595 135.102 100.424 131.267H103.178L114.521 178.745C115.116 180.582 116.007 182.202 117.195 183.606C118.221 184.849 119.599 185.983 121.327 187.009C123.056 187.982 125.27 188.468 127.971 188.468H130.726C133.426 188.468 135.668 187.982 137.45 187.009C139.287 185.983 140.772 184.849 141.907 183.606C143.257 182.256 144.337 180.636 145.147 178.745L177.4 97.5584C177.506 96.9171 178.767 96.1089 179.503 95.9416C179.717 95.8931 179.886 95.8985 179.97 95.9776L193.813 97.7583C197.044 98.0071 200.079 97.997 202.916 97.728C205.754 97.4589 208.097 96.5829 209.945 95.1C211.793 93.617 212.849 91.1522 213.115 87.7055C213.384 84.2049 212.719 81.5805 211.12 79.8321C209.521 78.0838 207.338 76.8864 204.571 76.2399C201.808 75.5396 198.811 75.065 195.579 74.8162L143.389 68.1178C140.212 67.8731 136.892 67.3394 134 67.6043C131.166 67.8195 129.111 69.2124 127.263 70.6953C125.416 72.1783 124.357 74.67 124.087 78.1706C123.822 81.6173 124.489 84.2148 126.088 85.9632C127.687 87.7115 129.868 88.9359 132.631 89.6362C135.448 90.3407 138.445 90.8153 141.622 91.0599L146.006 91.4148C146.006 91.4148 151.121 91.6081 153.507 92.9646C155.249 93.9548 154.496 96.0019 154.377 96.8839L130.726 150.874H127.971C127.971 150.874 114.683 89.2437 114.035 86.2189C113.387 83.1941 111.956 80.6554 109.741 78.6029Z" fill="#3D99F5" /></svg>
