<svg width="256" height="256" viewBox="0 0 256 256" fill="none" xmlns="http://www.w3.org/2000/svg">
<g clip-path="url(#clip0_193_1398)">
<rect width="256" height="256" rx="32" fill="#3D99F5"/>
<rect x="16" y="16" width="224" height="224" rx="17" fill="white"/>
<path d="M201.052 100.777C205.609 100.777 209.473 101.285 212.646 102.302C215.901 103.319 218.626 104.642 220.823 106.269C223.02 107.896 224.79 109.727 226.132 111.761C227.475 113.876 227.808 115.869 228.54 117.944C228.768 120.054 228.771 122.638 228.392 124.575C228.012 126.512 227.826 127.841 227.552 129.289C227.173 131.294 226.525 133.148 225.345 134.694C224.165 136.24 222.314 136.902 218.165 136.902C216.822 136.902 215.297 136.759 213.588 136.474C211.92 136.19 210.476 135.62 209.255 134.766C208.035 133.871 207.425 132.549 207.425 130.799C207.425 126.447 209.839 123.009 208.619 120.487C207.439 117.924 204.917 116.642 201.052 116.642C199.059 116.642 197.931 117.079 196.832 117.933C195.775 118.747 195.403 119.462 194.915 120.438C194.305 121.699 193.402 123.463 193.12 124.575C193.12 124.575 179.508 160.642 179.508 163.263C179.508 165.883 179.874 166.497 180.484 167.961C180.972 169.141 181.745 170.219 182.803 171.195C183.901 172.172 185.447 172.66 187.441 172.66C191.183 172.66 193.685 171.236 194.946 168.389C196.207 165.5 197.123 162.125 198.516 158.346C199.668 155.219 200.008 154.779 201.554 153.803C203.141 152.786 205.948 152.277 209.975 152.277C213.637 152.277 215.459 153.363 216.883 154.624C218.307 155.885 218.165 156.8 218.165 158.346C218.165 162.821 215.734 166.619 214.229 170.158C212.765 173.657 209.285 178.093 206.519 180.534C200.905 185.538 195.658 187.061 186.342 187.061C185.651 187.061 184.471 187 182.803 186.878C181.176 186.756 179.325 186.43 177.25 185.902C175.216 185.373 173.121 184.579 170.965 183.522C168.89 182.505 166.938 181.02 165.107 179.067C163.358 177.155 161.893 174.796 160.713 171.989C159.574 169.182 158.54 165.636 159.005 161.676C159.47 157.717 171.104 127.626 171.104 127.626L173.837 118.778C173.837 118.778 175.728 113.937 177.071 112.066C179.035 109.095 179.878 108.567 181.586 107.306C183.295 106.045 185.044 104.987 186.834 104.133C190.943 102.221 195.682 101.102 201.052 100.777Z" fill="#3D99F5"/>
<path d="M192.785 98.0294L179.158 96.2765C179.076 96.1986 178.909 96.1933 178.698 96.2411L192.785 98.0294Z" fill="#3D99F5"/>
<path d="M110.026 79.1733C107.846 77.1528 105.268 76.1426 102.29 76.1426C99.3126 76.1426 96.7604 77.1528 94.6336 79.1733C92.5068 81.1406 91.0712 83.6396 90.3268 86.6703C89.2102 91.6152 88.0671 96.7727 86.8973 102.143C85.7276 107.513 84.5313 112.963 83.3083 118.493C82.1386 123.969 80.9423 129.419 79.7194 134.843C78.5496 140.266 77.4596 145.423 76.4494 150.315H73.7377L50.1129 88.1275C49.6343 86.107 48.9165 84.2726 47.9595 82.6243C47.1087 81.2419 45.9124 79.9924 44.3705 78.8758C42.8817 77.7061 40.9144 77.1212 38.4686 77.1212C35.0125 77.1212 32.2742 78.2378 30.2538 80.4709C28.2865 82.6509 27.3028 85.0436 27.3028 87.6489C27.3028 89.0845 27.4092 90.2011 27.6218 90.9987L27.7814 91.7963L27.9409 92.4343L59.2222 177.751C60.0198 179.559 61.1098 181.154 62.4922 182.536C63.6619 183.759 65.1507 184.876 66.9585 185.886C68.8195 186.843 71.0792 187.321 73.7377 187.321H76.4494C79.1079 187.321 81.2613 186.843 82.9096 185.886C84.611 184.876 85.9934 183.759 87.0569 182.536C88.1734 181.313 89.1039 179.718 89.8483 177.751C90.7522 173.976 91.6561 170.148 92.56 166.266C93.4639 162.385 94.4209 158.424 95.4312 154.383C96.3882 150.342 97.3187 146.381 98.2226 142.499C99.1265 138.618 100.004 134.789 100.855 131.014H103.566L114.732 177.751C115.317 179.559 116.194 181.154 117.364 182.536C118.374 183.759 119.73 184.876 121.431 185.886C123.133 186.843 125.313 187.321 127.971 187.321H130.683C133.342 187.321 135.548 186.843 137.303 185.886C139.111 184.876 140.573 183.759 141.689 182.536C143.019 181.207 144.082 179.612 144.879 177.751L176.628 97.8327C176.732 97.2014 177.974 96.4058 178.698 96.2411C178.909 96.1933 179.076 96.1986 179.158 96.2765L192.785 98.0294C195.965 98.2744 198.952 98.2644 201.746 97.9996C204.539 97.7347 206.845 96.8724 208.664 95.4126C210.483 93.9529 211.523 91.5266 211.785 88.1337C212.05 84.6878 211.396 82.1044 209.822 80.3834C208.248 78.6623 206.099 77.4836 203.375 76.8472C200.655 76.1579 197.704 75.6907 194.524 75.4458L143.149 68.8521C140.021 68.6112 137.034 68.6212 134.187 68.8819C131.398 69.0938 129.094 69.9296 127.275 71.3893C125.456 72.8491 124.414 75.3019 124.149 78.7478C123.887 82.1406 124.544 84.6976 126.118 86.4186C127.692 88.1396 129.839 89.3448 132.558 90.0342C135.331 90.7277 138.282 91.1949 141.41 91.4357L145.724 91.7851C145.724 91.7851 150.76 91.9753 153.109 93.3106C154.823 94.2853 154.082 96.3005 153.965 97.1686L130.683 150.315H127.971C127.971 150.315 114.891 89.6479 114.253 86.6703C113.615 83.6928 112.206 81.1938 110.026 79.1733Z" fill="#3D99F5"/>
</g>
<defs>
<clipPath id="clip0_193_1398">
<rect width="256" height="256" fill="white"/>
</clipPath>
</defs>
</svg>